<svg width="89" height="99" viewBox="0 0 89 99" fill="none" xmlns="http://www.w3.org/2000/svg">
<path d="M42.88 28.88C50.3467 28.88 55.7867 30.3467 59.2 33.28C62.6133 36.2133 64.32 40.3467 64.32 45.68C64.32 48.0267 63.92 50.2933 63.12 52.48C62.3733 54.6133 61.12 56.5333 59.36 58.24C57.6 59.9467 55.2533 61.3067 52.32 62.32C49.3867 63.28 45.7867 63.76 41.52 63.76H34.96V86H27.76V28.88H42.88ZM42.24 35.04H34.96V57.6H40.72C44.3467 57.6 47.36 57.2267 49.76 56.48C52.16 55.68 53.9467 54.4267 55.12 52.72C56.2933 51.0133 56.88 48.7733 56.88 46C56.88 42.32 55.7067 39.5733 53.36 37.76C51.0133 35.9467 47.3067 35.04 42.24 35.04Z" fill="#FFB222"/>
<path d="M34.645 51.16V86H29.965L29.12 81.385H28.86C28.1233 82.5983 27.17 83.595 26 84.375C24.83 85.155 23.5517 85.7183 22.165 86.065C20.7783 86.455 19.3267 86.65 17.81 86.65C15.0367 86.65 12.6967 86.2167 10.79 85.35C8.92667 84.44 7.51833 83.0533 6.565 81.19C5.61167 79.3267 5.135 76.9217 5.135 73.975V51.16H10.92V73.585C10.92 76.3583 11.5483 78.4383 12.805 79.825C14.0617 81.2117 16.0117 81.905 18.655 81.905C21.255 81.905 23.2917 81.4283 24.765 80.475C26.2817 79.4783 27.3433 78.0483 27.95 76.185C28.6 74.2783 28.925 71.9817 28.925 69.295V51.16H34.645Z" fill="#FFB222"/>
</svg>
